<svg width="53" height="53" viewBox="0 0 53 53" fill="none" xmlns="http://www.w3.org/2000/svg">
<circle cx="26.5" cy="26.5" r="26" fill="white" stroke="#0F4C82"/>
<path d="M23.8984 29.9531V28.9453C23.8984 28.1797 24.0547 27.5352 24.3672 27.0117C24.6797 26.4805 25.2344 25.9648 26.0312 25.4648C26.6641 25.0664 27.1172 24.707 27.3906 24.3867C27.6719 24.0664 27.8125 23.6992 27.8125 23.2852C27.8125 22.957 27.6641 22.6992 27.3672 22.5117C27.0703 22.3164 26.6836 22.2188 26.207 22.2188C25.0273 22.2188 23.6484 22.6367 22.0703 23.4727L20.4414 20.2852C22.3867 19.1758 24.418 18.6211 26.5352 18.6211C28.2773 18.6211 29.6445 19.0039 30.6367 19.7695C31.6289 20.5352 32.125 21.5781 32.125 22.8984C32.125 23.8438 31.9023 24.6641 31.457 25.3594C31.0195 26.0469 30.3164 26.6992 29.3477 27.3164C28.5273 27.8477 28.0117 28.2383 27.8008 28.4883C27.5977 28.7305 27.4961 29.0195 27.4961 29.3555V29.9531H23.8984ZM23.3945 34.0547C23.3945 33.3359 23.6016 32.7812 24.0156 32.3906C24.4375 32 25.0547 31.8047 25.8672 31.8047C26.6484 31.8047 27.2461 32.0039 27.6602 32.4023C28.082 32.793 28.293 33.3438 28.293 34.0547C28.293 34.7656 28.0742 35.3164 27.6367 35.707C27.207 36.0977 26.6172 36.293 25.8672 36.293C25.0938 36.293 24.4883 36.1016 24.0508 35.7188C23.6133 35.3281 23.3945 34.7734 23.3945 34.0547Z" fill="#0F4C82"/>
</svg>
