<svg width="53" height="53" viewBox="0 0 53 53" fill="none" xmlns="http://www.w3.org/2000/svg">
<circle cx="26.5" cy="26.5" r="26" fill="white" stroke="#0F4C82"/>
<path d="M24.5039 30.3164V29.4492C24.5039 28.6992 24.6641 28.0469 24.9844 27.4922C25.3047 26.9375 25.8906 26.3477 26.7422 25.7227C27.5625 25.1367 28.1016 24.6602 28.3594 24.293C28.625 23.9258 28.7578 23.5156 28.7578 23.0625C28.7578 22.5547 28.5703 22.168 28.1953 21.9023C27.8203 21.6367 27.2969 21.5039 26.625 21.5039C25.4531 21.5039 24.1172 21.8867 22.6172 22.6523L21.3398 20.0859C23.082 19.1094 24.9297 18.6211 26.8828 18.6211C28.4922 18.6211 29.7695 19.0078 30.7148 19.7812C31.668 20.5547 32.1445 21.5859 32.1445 22.875C32.1445 23.7344 31.9492 24.4766 31.5586 25.1016C31.168 25.7266 30.4258 26.4297 29.332 27.2109C28.582 27.7656 28.1055 28.1875 27.9023 28.4766C27.707 28.7656 27.6094 29.1445 27.6094 29.6133V30.3164H24.5039ZM24.1289 34.3242C24.1289 33.668 24.3047 33.1719 24.6562 32.8359C25.0078 32.5 25.5195 32.332 26.1914 32.332C26.8398 32.332 27.3398 32.5039 27.6914 32.8477C28.0508 33.1914 28.2305 33.6836 28.2305 34.3242C28.2305 34.9414 28.0508 35.4297 27.6914 35.7891C27.332 36.1406 26.832 36.3164 26.1914 36.3164C25.5352 36.3164 25.0273 36.1445 24.668 35.8008C24.3086 35.4492 24.1289 34.957 24.1289 34.3242Z" fill="#0F4C82"/>
</svg>
