<svg width="128" height="44" viewBox="0 0 128 44" fill="none" xmlns="http://www.w3.org/2000/svg">
<path d="M32.7231 33H27.4321V11.6777H17.184V33H11.9106V7.40625H32.7231V33ZM51.8129 27.7266H42.5668L40.809 33H35.2016L44.729 7.40625H49.6157L59.1958 33H53.5883L51.8129 27.7266ZM43.9907 23.4551H50.3891L47.1723 13.875L43.9907 23.4551ZM74.2075 14.4551C74.2075 13.4824 73.8266 12.7207 73.0649 12.1699C72.3032 11.6074 71.2954 11.3262 70.0415 11.3262C68.9165 11.3262 67.979 11.6074 67.229 12.1699C66.4907 12.7207 66.1215 13.4414 66.1215 14.332H60.8481C60.8481 12.9492 61.2348 11.707 62.0083 10.6055C62.7934 9.49219 63.9008 8.625 65.3305 8.00391C66.7719 7.38281 68.3422 7.07227 70.0415 7.07227C72.9946 7.07227 75.309 7.70508 76.9848 8.9707C78.6606 10.2363 79.4985 12.0293 79.4985 14.3496C79.4985 15.4863 79.1528 16.541 78.4614 17.5137C77.7817 18.4863 76.809 19.2656 75.5434 19.8516C76.9497 20.3438 78.0278 21.0938 78.7778 22.1016C79.5278 23.0977 79.9028 24.3398 79.9028 25.8281C79.9028 28.125 79.0004 29.9531 77.1958 31.3125C75.4028 32.6602 73.018 33.334 70.0415 33.334C68.1782 33.334 66.5024 33.0176 65.0141 32.3848C63.5258 31.7402 62.395 30.8672 61.6215 29.7656C60.8598 28.6523 60.479 27.3633 60.479 25.8984H65.7876C65.7876 26.8125 66.186 27.5801 66.9829 28.2012C67.7797 28.8105 68.7993 29.1152 70.0415 29.1152C71.4477 29.1152 72.5551 28.7988 73.3637 28.166C74.184 27.5332 74.5942 26.7305 74.5942 25.7578C74.5942 24.4219 74.2309 23.4668 73.5043 22.8926C72.7778 22.3066 71.7172 22.0137 70.3227 22.0137H67.1762V17.8828H70.4282C72.9477 17.8477 74.2075 16.7051 74.2075 14.4551Z" fill="black"/>
<rect x="96.5" y="8.44922" width="26.3406" height="24.0242" rx="8.5" stroke="black" stroke-width="3"/>
<path fill-rule="evenodd" clip-rule="evenodd" d="M108.441 29.8151L127.532 10.7244L124.76 7.95312L108.461 24.2527L101.168 16.9596L98.3965 19.7308L105.69 27.024L105.67 27.0439L108.441 29.8151Z" fill="url(#paint0_linear)"/>
<defs>
<linearGradient id="paint0_linear" x1="98.0001" y1="11.2385" x2="112.964" y2="29.8151" gradientUnits="userSpaceOnUse">
<stop offset="0.40625" stop-color="#009F10"/>
<stop offset="1" stop-color="#044A0B"/>
</linearGradient>
</defs>
</svg>
