<svg width="94" height="29" viewBox="0 0 94 29" fill="none" xmlns="http://www.w3.org/2000/svg">
<path d="M15.4219 23H11.8945V8.78516H5.0625V23H1.54688V5.9375H15.4219V23ZM28.1484 19.4844H21.9844L20.8125 23H17.0742L23.4258 5.9375H26.6836L33.0703 23H29.332L28.1484 19.4844ZM22.9336 16.6367H27.1992L25.0547 10.25L22.9336 16.6367ZM43.0781 10.6367C43.0781 9.98828 42.8242 9.48047 42.3164 9.11328C41.8086 8.73828 41.1367 8.55078 40.3008 8.55078C39.5508 8.55078 38.9258 8.73828 38.4258 9.11328C37.9336 9.48047 37.6875 9.96094 37.6875 10.5547H34.1719C34.1719 9.63281 34.4297 8.80469 34.9453 8.07031C35.4688 7.32813 36.207 6.75 37.1602 6.33594C38.1211 5.92188 39.168 5.71484 40.3008 5.71484C42.2695 5.71484 43.8125 6.13672 44.9297 6.98047C46.0469 7.82422 46.6055 9.01953 46.6055 10.5664C46.6055 11.3242 46.375 12.0273 45.9141 12.6758C45.4609 13.3242 44.8125 13.8438 43.9688 14.2344C44.9062 14.5625 45.625 15.0625 46.125 15.7344C46.625 16.3984 46.875 17.2266 46.875 18.2188C46.875 19.75 46.2734 20.9688 45.0703 21.875C43.875 22.7734 42.2852 23.2227 40.3008 23.2227C39.0586 23.2227 37.9414 23.0117 36.9492 22.5898C35.957 22.1602 35.2031 21.5781 34.6875 20.8438C34.1797 20.1016 33.9258 19.2422 33.9258 18.2656H37.4648C37.4648 18.875 37.7305 19.3867 38.2617 19.8008C38.793 20.207 39.4727 20.4102 40.3008 20.4102C41.2383 20.4102 41.9766 20.1992 42.5156 19.7773C43.0625 19.3555 43.3359 18.8203 43.3359 18.1719C43.3359 17.2812 43.0938 16.6445 42.6094 16.2617C42.125 15.8711 41.418 15.6758 40.4883 15.6758H38.3906V12.9219H40.5586C42.2383 12.8984 43.0781 12.1367 43.0781 10.6367Z" fill="black"/>
<rect x="63.5" y="1.5" width="26.3406" height="25.7661" rx="8.5" stroke="black" stroke-width="3"/>
<path fill-rule="evenodd" clip-rule="evenodd" d="M74.4407 24.3395L93.5315 4.01822L90.7603 1.06836L74.461 18.4182L67.1677 10.6548L64.3965 13.6047L71.6898 21.368L71.6695 21.3897L74.4407 24.3395Z" fill="url(#paint0_linear)"/>
<defs>
<linearGradient id="paint0_linear" x1="64.0001" y1="4.56552" x2="80.1116" y2="23.3555" gradientUnits="userSpaceOnUse">
<stop offset="0.40625" stop-color="#009F10"/>
<stop offset="1" stop-color="#044A0B"/>
</linearGradient>
</defs>
</svg>
